# xmcd CD database file
#
# Track frame offsets:
#	150
#	15111
#	31013
#	45381
#	65675
#	79450
#	93252
#
# Disc length: 1432 seconds
#
# Revision: 0
# Processed by: cddbd v1.5.2PL0 Copyright (c) Steve Scherf et al.
# Submitted via: CDex 1.70beta2
#
DISCID=45059607
DTITLE=Chad Brownlee, 1984- - Hearts On Fire
DYEAR=2016
DGENRE=Country Can 2011-2020
TTITLE0=Chad Brownlee - Hearts On Fire
TTITLE1=Chad Brownlee - I Hate You For It 
TTITLE2=Chad Brownlee - Something We Shouldn't Do
TTITLE3=Chad Brownlee - Might As Well Be Me
TTITLE4=Chad Brownlee - Out Of The Blue 
TTITLE5=Chad Brownlee - Gone Gone 
TTITLE6=Chad Brownlee - Damn The Radio 
EXTD=YEAR: 2016
EXTT0=
EXTT1=
EXTT2=
EXTT3=
EXTT4=
EXTT5=
EXTT6=
PLAYORDER=
